<mxfile host="Electron" modified="2024-03-10T09:32:37.304Z" agent="Mozilla/5.0 (Windows NT 10.0; Win64; x64) AppleWebKit/537.36 (KHTML, like Gecko) draw.io/23.1.5 Chrome/120.0.6099.109 Electron/28.1.0 Safari/537.36" etag="3flkrs6KNlwiWCeWAPF4" version="23.1.5" type="device">
  <diagram name="Page-1" id="S5o4JzVYzdMMZ94gjJ7W">
    <mxGraphModel dx="1120" dy="572" grid="0" gridSize="10" guides="1" tooltips="1" connect="1" arrows="1" fold="1" page="1" pageScale="1" pageWidth="850" pageHeight="1100" math="0" shadow="0">
      <root>
        <mxCell id="0" />
        <mxCell id="1" parent="0" />
        <mxCell id="IacKyx_kJ09-m3QflK3A-1" value="Customer" style="shape=umlActor;verticalLabelPosition=bottom;verticalAlign=top;html=1;" vertex="1" parent="1">
          <mxGeometry x="406" y="298" width="30" height="60" as="geometry" />
        </mxCell>
        <mxCell id="IacKyx_kJ09-m3QflK3A-41" value="signup" style="ellipse;whiteSpace=wrap;html=1;" vertex="1" parent="1">
          <mxGeometry x="365" y="104" width="120" height="80" as="geometry" />
        </mxCell>
        <mxCell id="IacKyx_kJ09-m3QflK3A-42" value="login/logout" style="ellipse;whiteSpace=wrap;html=1;" vertex="1" parent="1">
          <mxGeometry x="639" y="118" width="120" height="80" as="geometry" />
        </mxCell>
        <mxCell id="IacKyx_kJ09-m3QflK3A-46" value="close account" style="ellipse;whiteSpace=wrap;html=1;" vertex="1" parent="1">
          <mxGeometry x="126" y="123" width="120" height="80" as="geometry" />
        </mxCell>
        <mxCell id="IacKyx_kJ09-m3QflK3A-47" value="search for products" style="ellipse;whiteSpace=wrap;html=1;" vertex="1" parent="1">
          <mxGeometry x="97" y="262" width="120" height="80" as="geometry" />
        </mxCell>
        <mxCell id="IacKyx_kJ09-m3QflK3A-48" value="add to cart" style="ellipse;whiteSpace=wrap;html=1;" vertex="1" parent="1">
          <mxGeometry x="228" y="510" width="120" height="80" as="geometry" />
        </mxCell>
        <mxCell id="IacKyx_kJ09-m3QflK3A-49" value="remove from cart" style="ellipse;whiteSpace=wrap;html=1;" vertex="1" parent="1">
          <mxGeometry x="481" y="545" width="120" height="80" as="geometry" />
        </mxCell>
        <mxCell id="IacKyx_kJ09-m3QflK3A-50" value="view cart" style="ellipse;whiteSpace=wrap;html=1;" vertex="1" parent="1">
          <mxGeometry x="97" y="412" width="120" height="80" as="geometry" />
        </mxCell>
        <mxCell id="IacKyx_kJ09-m3QflK3A-51" value="checkout" style="ellipse;whiteSpace=wrap;html=1;" vertex="1" parent="1">
          <mxGeometry x="650" y="281" width="120" height="80" as="geometry" />
        </mxCell>
        <mxCell id="IacKyx_kJ09-m3QflK3A-53" value="view orders" style="ellipse;whiteSpace=wrap;html=1;" vertex="1" parent="1">
          <mxGeometry x="675" y="478" width="120" height="80" as="geometry" />
        </mxCell>
        <mxCell id="IacKyx_kJ09-m3QflK3A-56" value="" style="endArrow=none;html=1;rounded=0;" edge="1" parent="1">
          <mxGeometry width="50" height="50" relative="1" as="geometry">
            <mxPoint x="422" y="274" as="sourcePoint" />
            <mxPoint x="424" y="187" as="targetPoint" />
          </mxGeometry>
        </mxCell>
        <mxCell id="IacKyx_kJ09-m3QflK3A-57" value="" style="endArrow=none;html=1;rounded=0;" edge="1" parent="1">
          <mxGeometry width="50" height="50" relative="1" as="geometry">
            <mxPoint x="379" y="307" as="sourcePoint" />
            <mxPoint x="246" y="206" as="targetPoint" />
          </mxGeometry>
        </mxCell>
        <mxCell id="IacKyx_kJ09-m3QflK3A-58" value="" style="endArrow=none;html=1;rounded=0;" edge="1" parent="1">
          <mxGeometry width="50" height="50" relative="1" as="geometry">
            <mxPoint x="227" y="319" as="sourcePoint" />
            <mxPoint x="392" y="345" as="targetPoint" />
          </mxGeometry>
        </mxCell>
        <mxCell id="IacKyx_kJ09-m3QflK3A-59" value="" style="endArrow=none;html=1;rounded=0;" edge="1" parent="1">
          <mxGeometry width="50" height="50" relative="1" as="geometry">
            <mxPoint x="237" y="440" as="sourcePoint" />
            <mxPoint x="368" y="375" as="targetPoint" />
          </mxGeometry>
        </mxCell>
        <mxCell id="IacKyx_kJ09-m3QflK3A-60" value="" style="endArrow=none;html=1;rounded=0;" edge="1" parent="1">
          <mxGeometry width="50" height="50" relative="1" as="geometry">
            <mxPoint x="328" y="501" as="sourcePoint" />
            <mxPoint x="409" y="393" as="targetPoint" />
          </mxGeometry>
        </mxCell>
        <mxCell id="IacKyx_kJ09-m3QflK3A-61" value="" style="endArrow=none;html=1;rounded=0;" edge="1" parent="1">
          <mxGeometry width="50" height="50" relative="1" as="geometry">
            <mxPoint x="459" y="371" as="sourcePoint" />
            <mxPoint x="510" y="509" as="targetPoint" />
          </mxGeometry>
        </mxCell>
        <mxCell id="IacKyx_kJ09-m3QflK3A-62" value="" style="endArrow=none;html=1;rounded=0;" edge="1" parent="1">
          <mxGeometry width="50" height="50" relative="1" as="geometry">
            <mxPoint x="455" y="333" as="sourcePoint" />
            <mxPoint x="662" y="477" as="targetPoint" />
          </mxGeometry>
        </mxCell>
        <mxCell id="IacKyx_kJ09-m3QflK3A-63" value="" style="endArrow=none;html=1;rounded=0;" edge="1" parent="1">
          <mxGeometry width="50" height="50" relative="1" as="geometry">
            <mxPoint x="450" y="309" as="sourcePoint" />
            <mxPoint x="637" y="318" as="targetPoint" />
          </mxGeometry>
        </mxCell>
        <mxCell id="IacKyx_kJ09-m3QflK3A-64" value="" style="endArrow=none;html=1;rounded=0;" edge="1" parent="1">
          <mxGeometry width="50" height="50" relative="1" as="geometry">
            <mxPoint x="442" y="290" as="sourcePoint" />
            <mxPoint x="633" y="181" as="targetPoint" />
          </mxGeometry>
        </mxCell>
        <mxCell id="IacKyx_kJ09-m3QflK3A-65" value="" style="endArrow=open;endSize=12;dashed=1;html=1;rounded=0;" edge="1" parent="1">
          <mxGeometry x="-0.2095" y="38" width="160" relative="1" as="geometry">
            <mxPoint x="253" y="182" as="sourcePoint" />
            <mxPoint x="360" y="170" as="targetPoint" />
            <mxPoint as="offset" />
          </mxGeometry>
        </mxCell>
        <mxCell id="IacKyx_kJ09-m3QflK3A-67" value="&amp;lt;&amp;lt;include&amp;gt;&amp;gt;" style="text;strokeColor=none;align=center;fillColor=none;html=1;verticalAlign=middle;whiteSpace=wrap;rounded=0;rotation=50;" vertex="1" parent="1">
          <mxGeometry x="256" y="171" width="90" height="13" as="geometry" />
        </mxCell>
        <mxCell id="IacKyx_kJ09-m3QflK3A-71" value="" style="endArrow=open;endSize=12;dashed=1;html=1;rounded=0;" edge="1" parent="1">
          <mxGeometry x="-0.8537" y="-74" width="160" relative="1" as="geometry">
            <mxPoint x="621" y="155" as="sourcePoint" />
            <mxPoint x="489" y="129" as="targetPoint" />
            <mxPoint as="offset" />
          </mxGeometry>
        </mxCell>
        <mxCell id="IacKyx_kJ09-m3QflK3A-72" value="&amp;lt;&amp;lt;include&amp;gt;&amp;gt;" style="text;strokeColor=none;align=center;fillColor=none;html=1;verticalAlign=middle;whiteSpace=wrap;rounded=0;rotation=70;" vertex="1" parent="1">
          <mxGeometry x="517" y="137.5" width="90" height="13" as="geometry" />
        </mxCell>
        <mxCell id="IacKyx_kJ09-m3QflK3A-73" value="" style="endArrow=open;endSize=12;dashed=1;html=1;rounded=0;" edge="1" parent="1">
          <mxGeometry x="-1" y="59" width="160" relative="1" as="geometry">
            <mxPoint x="712" y="466" as="sourcePoint" />
            <mxPoint x="719" y="376" as="targetPoint" />
            <mxPoint x="-43" y="31" as="offset" />
          </mxGeometry>
        </mxCell>
        <mxCell id="IacKyx_kJ09-m3QflK3A-74" value="&amp;lt;&amp;lt;include&amp;gt;&amp;gt;" style="text;strokeColor=none;align=center;fillColor=none;html=1;verticalAlign=middle;whiteSpace=wrap;rounded=0;rotation=10;" vertex="1" parent="1">
          <mxGeometry x="672" y="417" width="90" height="13" as="geometry" />
        </mxCell>
        <mxCell id="IacKyx_kJ09-m3QflK3A-76" value="" style="endArrow=open;endSize=12;dashed=1;html=1;rounded=0;" edge="1" parent="1">
          <mxGeometry x="0.3771" y="71" width="160" relative="1" as="geometry">
            <mxPoint x="714" y="272" as="sourcePoint" />
            <mxPoint x="707" y="206" as="targetPoint" />
            <Array as="points" />
            <mxPoint as="offset" />
          </mxGeometry>
        </mxCell>
        <mxCell id="IacKyx_kJ09-m3QflK3A-77" value="&amp;lt;&amp;lt;include&amp;gt;&amp;gt;" style="text;strokeColor=none;align=center;fillColor=none;html=1;verticalAlign=middle;whiteSpace=wrap;rounded=0;rotation=0;" vertex="1" parent="1">
          <mxGeometry x="665" y="244" width="90" height="13" as="geometry" />
        </mxCell>
        <mxCell id="IacKyx_kJ09-m3QflK3A-78" value="" style="endArrow=open;endSize=12;dashed=1;html=1;rounded=0;" edge="1" parent="1">
          <mxGeometry x="0.2128" y="57" width="160" relative="1" as="geometry">
            <mxPoint x="467" y="578" as="sourcePoint" />
            <mxPoint x="354" y="568" as="targetPoint" />
            <mxPoint as="offset" />
          </mxGeometry>
        </mxCell>
        <mxCell id="IacKyx_kJ09-m3QflK3A-79" value="&amp;lt;&amp;lt;include&amp;gt;&amp;gt;" style="text;strokeColor=none;align=center;fillColor=none;html=1;verticalAlign=middle;whiteSpace=wrap;rounded=0;rotation=-90;" vertex="1" parent="1">
          <mxGeometry x="372" y="567" width="91" height="13" as="geometry" />
        </mxCell>
      </root>
    </mxGraphModel>
  </diagram>
</mxfile>
